<?xml version="1.0" standalone="no"?>
<!DOCTYPE svg PUBLIC "-//W3C//DTD SVG 20010904//EN"
 "http://www.w3.org/TR/2001/REC-SVG-20010904/DTD/svg10.dtd">
<svg version="1.0" xmlns="http://www.w3.org/2000/svg"
 width="225.000000pt" height="211.000000pt" viewBox="0 0 225.000000 211.000000"
 preserveAspectRatio="xMidYMid meet">

<g transform="translate(0.000000,211.000000) scale(0.100000,-0.100000)"
fill="#000000" stroke="none">
<path d="M1299 1996 c-31 -12 -71 -32 -90 -44 -69 -42 -149 -178 -165 -280
-15 -93 45 -219 119 -252 93 -43 229 -10 281 66 l23 34 -5 -131 -5 -131 22 11
c43 23 66 98 81 265 17 179 -12 266 -88 266 -34 0 -34 -1 -28 -32 19 -89 19
-134 -2 -181 -23 -52 -64 -82 -123 -92 -101 -17 -157 50 -145 172 10 92 40
165 86 207 41 37 78 48 149 44 50 -3 68 14 58 54 -5 17 -18 30 -38 37 -45 16
-67 14 -130 -13z"/>
<path d="M545 1871 c-67 -17 -230 -83 -249 -101 -5 -5 3 -20 17 -34 32 -32 71
-33 156 -5 35 11 65 18 67 16 3 -2 -2 -83 -10 -178 -8 -96 -18 -217 -21 -270
l-7 -96 27 -21 c15 -12 38 -22 50 -22 35 0 239 105 285 146 87 79 141 222 125
331 -12 82 -112 202 -199 238 -47 20 -153 18 -241 -4z m242 -98 c60 -30 76
-61 81 -158 6 -111 -9 -163 -64 -224 -39 -43 -151 -111 -183 -111 -8 0 -12 62
-13 210 -1 116 -2 227 -2 247 -1 35 2 38 39 50 48 15 93 10 142 -14z"/>
<path d="M2071 1285 c-94 -23 -166 -46 -169 -53 -2 -7 4 -19 13 -26 34 -25 30
-121 -14 -389 -35 -213 -39 -253 -29 -275 7 -15 20 -28 28 -30 29 -5 341 181
327 195 -4 3 -48 -15 -99 -41 -98 -49 -125 -55 -134 -32 -3 8 4 60 15 115 12
55 21 109 21 120 0 16 16 28 64 50 66 30 86 52 86 94 l0 25 -67 -34 c-38 -19
-68 -34 -68 -34 0 0 0 52 0 115 l-1 115 26 1 c85 2 177 59 168 105 -3 18 -12
17 -167 -21z"/>
<path d="M1702 1233 c-32 -45 -135 -259 -181 -376 -39 -96 -56 -126 -66 -116
-2 2 -15 73 -29 157 -41 242 -71 287 -162 241 -55 -28 -63 -45 -96 -204 -14
-68 -21 -143 -22 -237 -1 -153 5 -171 64 -171 56 0 62 15 76 210 15 189 29
299 44 323 12 19 12 19 51 -170 17 -85 38 -167 45 -182 16 -32 46 -50 67 -42
18 7 72 110 117 222 18 45 35 82 38 82 3 0 3 -82 0 -183 -4 -107 -2 -190 4
-200 12 -23 50 -21 81 3 43 34 54 88 72 357 19 291 17 306 -47 311 -30 3 -39
-2 -56 -25z"/>
<path d="M785 1045 c-65 -26 -91 -52 -133 -130 -25 -46 -27 -59 -27 -165 0
-108 2 -119 30 -174 38 -74 73 -101 128 -100 83 2 176 75 234 186 26 48 28 62
28 158 0 92 -3 111 -25 155 -47 95 -121 117 -235 70z m114 -70 c38 -19 63 -82
69 -177 4 -69 2 -81 -21 -120 -38 -65 -98 -118 -140 -125 -32 -5 -38 -2 -55
27 -27 44 -46 149 -37 208 18 125 45 173 109 191 43 13 44 13 75 -4z"/>
<path d="M387 983 c-16 -4 -15 -6 4 -22 25 -20 38 -80 39 -182 l0 -76 -61 -7
c-34 -3 -77 -6 -95 -6 -33 0 -34 1 -34 43 0 63 -26 159 -46 174 -18 13 -104
19 -104 7 0 -3 9 -17 20 -31 16 -21 20 -41 20 -109 l0 -83 -60 -7 c-36 -4 -60
-11 -60 -18 0 -20 40 -57 79 -73 20 -8 39 -20 43 -27 4 -6 8 -91 8 -189 0
-187 3 -199 41 -146 22 29 46 147 55 263 l7 86 36 0 c20 0 60 3 89 6 l52 7 0
-131 c0 -145 8 -164 47 -116 31 38 53 112 59 199 3 39 9 79 14 90 17 41 18 54
8 91 -5 22 -14 70 -18 107 -5 38 -14 83 -20 101 -15 46 -62 65 -123 49z"/>
</g>
</svg>
